<svg id="Layer_1" data-name="Layer 1" xmlns="http://www.w3.org/2000/svg" viewBox="0 0 200 80.93">
  <defs>
    <style>
      .cls-1, .cls-2 {
        fill: #fff;
        fill-rule: evenodd;
      }

      .cls-1 {
        stroke: #fff;
        stroke-miterlimit: 2.61;
        stroke-width: 0.62px;
      }
    </style>
  </defs>
  <title>white logoEquifax</title>
  <g>
    <polygon class="cls-1" points="51.7 30.84 52.59 26.65 34.06 26.65 31.61 38.18 29.53 47.47 48.58 47.47 49.54 43.05 38.98 43.05 39.94 38.55 48.88 38.55 49.84 34.36 40.91 34.36 41.66 30.84 51.7 30.84 51.7 30.84"/>
    <path class="cls-2" d="M67.26,38.56h6.47a45.33,45.33,0,0,0,.74-5,4.25,4.25,0,0,0-2.3-4.27C69.8,27.94,66.3,28,63.68,27.92c-3.59-.13-7.86.33-10.12,3.52a14.87,14.87,0,0,0-2.08,6.18c-.32,2.43-1.53,6.5.67,8.5,1.64,1.48,5.3,2,7.43,2a34.44,34.44,0,0,0,6.41-.6l5.58,6.81h8.71l-13-15.72Zm-1,.15c-.71,3.22-1.68,5.94-5.43,5.91s-2.52-4.08-2.16-6.44c.51-3.35,1.79-6.87,5.65-6.59s2.53,4.43,1.94,7.12Z"/>
    <polygon class="cls-2" points="102.01 28.97 100 38.18 97.99 47.47 105.58 47.47 109.67 28.97 102.01 28.97 102.01 28.97"/>
    <polygon class="cls-2" points="128.28 32.64 129.17 28.97 112.58 28.97 108.56 47.47 116.22 47.47 117.94 39.53 125.45 39.53 125.75 38.18 126.19 36.08 118.75 36.08 119.5 32.64 128.28 32.64 128.28 32.64"/>
    <path class="cls-2" d="M77.6,29h7.74l-2.9,13.11c-.36,1.6,1.14,2.43,2.42,2.54A3.28,3.28,0,0,0,88.39,42l3-13h7.67l-3,13.85c-1.31,3.62-4.34,5-7.68,5.39a24,24,0,0,1-6.24-.29l-6.85-8.24L77.6,29Z"/>
    <path class="cls-2" d="M145.47,29h9.75l3,4.79L163,29h7.44l-9.74,8.61,6.4,9.89H157.6l-3.13-5.62-5.35,5.62H137.73l-.45-4H129.4l-2.76,4h-5.36L134.23,29h9.3l1.79,15,6.18-5.69-6-9.29ZM131.93,39.45l4.16-6.29.75,6.29Z"/>
  </g>
</svg>
