<svg id="Layer_1" data-name="Layer 1" xmlns="http://www.w3.org/2000/svg" viewBox="0 0 200 80.93">
  <defs>
    <style>
      .cls-1 {
        fill: #fff;
      }
    </style>
  </defs>
  <title>white logoGE</title>
  <g id="_3a73b8ff" data-name="#3a73b8ff">
    <path class="cls-1" d="M97.8,10.16a30.39,30.39,0,0,1,12.08,59.05,30.38,30.38,0,0,1-31.75-7.64A30.46,30.46,0,0,1,72,28.74a30.64,30.64,0,0,1,9.3-12.18,30.28,30.28,0,0,1,16.53-6.4m0,1.46a28.75,28.75,0,0,0-10.28,2.75,28.92,28.92,0,0,0,12,55,28.45,28.45,0,0,0,13.34-3,29,29,0,0,0,12.45-12,28.65,28.65,0,0,0,3.42-16.82,29,29,0,0,0-14.95-22.52A28.65,28.65,0,0,0,97.79,11.62Z"/>
    <path class="cls-1" d="M92.68,14.37a27.12,27.12,0,0,1,15.51.26,1.72,1.72,0,0,1,.55.37c-.82-.06-1.58-.43-2.39-.57a18.07,18.07,0,0,0-6.22-.3A5.45,5.45,0,0,0,96.65,16a2.24,2.24,0,0,0,0,2.83,2.38,2.38,0,0,0,3.09.12,9.46,9.46,0,0,1,3.36-2,15.28,15.28,0,0,1,8,.64,20.25,20.25,0,0,1,8.35,4.51,23.45,23.45,0,0,1,7.2,13.58,27.42,27.42,0,0,1-.81,13.16.42.42,0,0,1-.38.35,19.69,19.69,0,0,0,.79-8.91c-.31-1.44-1-3.06-2.53-3.55a2,2,0,0,0-2.66,1.64c-.22,1.35.88,2.32,1.57,3.33,1.47,2.11,1.28,4.85.92,7.27a23.83,23.83,0,0,1-3.75,9.28,22.24,22.24,0,0,1-13.12,8.54,29,29,0,0,1-13.71,0,3.79,3.79,0,0,1-1.72-.7,16.51,16.51,0,0,1,2.48.5,16.62,16.62,0,0,0,7,.1A4.93,4.93,0,0,0,103.42,65a2.25,2.25,0,0,0-.15-2.83,2.15,2.15,0,0,0-2.53-.39c-1,.53-1.72,1.39-2.71,1.89a10.72,10.72,0,0,1-6.46.47,23,23,0,0,1-9.91-4.24A22.5,22.5,0,0,1,74,48.12a28.35,28.35,0,0,1-.12-14.77c.21-.5.13-1.28.7-1.52a20.72,20.72,0,0,0-.86,8.49,5.46,5.46,0,0,0,1.71,3.44,2.25,2.25,0,0,0,2.67.24,2.06,2.06,0,0,0,.74-2.57c-.41-1-1.26-1.71-1.75-2.67-1.05-1.92-.94-4.22-.66-6.32a23.43,23.43,0,0,1,3.72-9.52,22.3,22.3,0,0,1,12.58-8.55m.68,10.24a9.25,9.25,0,0,0-3.6,4.1,14.61,14.61,0,0,0-1.42,5.43,2,2,0,0,1-1.65-1.53,7,7,0,0,1,.23-3.48c.09-.33-.16-.6-.3-.87a1.79,1.79,0,0,0-1.71.93,5.25,5.25,0,0,0,.45,5.69,4.45,4.45,0,0,0,3.09,1.53,4.37,4.37,0,0,0,2.4,2.88c1.52.61,3.19,0,4.51-.82a5.87,5.87,0,0,1-.25,1.45,10.21,10.21,0,0,1-1.54.88,33.64,33.64,0,0,0-7.27,4.64,9.21,9.21,0,0,0-3,5.57,4.89,4.89,0,0,0,2,4.48,5.92,5.92,0,0,0,5.28.33,9.51,9.51,0,0,0,4.77-4.59c1.56-2.79,1.82-6,2-9.17.06-.37,0-.88.41-1a76.48,76.48,0,0,0,7.37-4.69c.28.34.55.69.81,1a12.58,12.58,0,0,0-3.34,2.6,10.42,10.42,0,0,0,.11,13.84,8.44,8.44,0,0,0,7.27,2.38,8.15,8.15,0,0,0,5.8-3.95,7.54,7.54,0,0,0-.75-8.72,5.35,5.35,0,0,0-7.71.07,4.41,4.41,0,0,0,0,6A2.1,2.1,0,0,0,110,50a1.08,1.08,0,0,0,.05-1.6,3,3,0,0,1-1-2.32,2.16,2.16,0,0,1,2.6-1.66,2.81,2.81,0,0,1,2.07,1.77,5.69,5.69,0,0,1-1.14,6,5.11,5.11,0,0,1-6.27.69,7,7,0,0,1-3-4.92,9.16,9.16,0,0,1,1.58-6.74,6.86,6.86,0,0,1,3.71-2.54,9.8,9.8,0,0,0,3.78-.08c.58-.2,1.14-.84.85-1.47a2.3,2.3,0,0,0-1.75-1,7.26,7.26,0,0,0-2.89.25,2.47,2.47,0,0,1-1.26-1.54,19.31,19.31,0,0,0,4.92-4.83,5.36,5.36,0,0,0,.86-4,2.63,2.63,0,0,0-2-1.87,4.61,4.61,0,0,0-4.32,1.55,10.1,10.1,0,0,0-2.55,7.08,6.06,6.06,0,0,1,0,1.59,47.5,47.5,0,0,1-4.17,2.81,25.55,25.55,0,0,1-2.44,1.39,8.58,8.58,0,0,1,.29-2.42,22.19,22.19,0,0,0,1.89-2.53,2.32,2.32,0,0,0,.32-2.18,1.23,1.23,0,0,0-1.6-.22A4.9,4.9,0,0,0,96.48,34c-.29.68-.33,1.51-1,2a4.78,4.78,0,0,1-3.14,1.49,1.48,1.48,0,0,1-1.3-1.27,12,12,0,0,0,4.82-3.71,10.25,10.25,0,0,0,2.32-5.35A2.71,2.71,0,0,0,97,24.47,3.94,3.94,0,0,0,93.36,24.61Z"/>
    <path class="cls-1" d="M94.46,26.44a.93.93,0,0,1,1.4.35,3,3,0,0,1-.37,1.95,14,14,0,0,1-3.42,4.31,4.33,4.33,0,0,1-1.17.75,11.21,11.21,0,0,1,1.19-4.23A7.82,7.82,0,0,1,94.46,26.44Z"/>
    <path class="cls-1" d="M108.82,27c.39-.45,1.07-.91,1.67-.6s.32,1.27.06,1.81a15,15,0,0,1-3.72,4.29A8.4,8.4,0,0,1,108.82,27Z"/>
    <path class="cls-1" d="M89.16,46.3a25.52,25.52,0,0,1,5.65-3.62,23.71,23.71,0,0,1-1.59,6.58c-.73,1.68-1.81,3.42-3.61,4.11a2.84,2.84,0,0,1-2.94-.17,2.73,2.73,0,0,1-.49-2.73A9.18,9.18,0,0,1,89.16,46.3Z"/>
  </g>
</svg>
