<svg id="Layer_1" data-name="Layer 1" xmlns="http://www.w3.org/2000/svg" xmlns:xlink="http://www.w3.org/1999/xlink" viewBox="0 0 200 80.93">
  <defs>
    <style>
      .cls-1 {
        fill: #fff;
      }

      .cls-2 {
        clip-path: url(#clip-path);
      }
    </style>
    <clipPath id="clip-path">
      <path class="cls-1" d="M109.39,61.84h0m10.8-21.27c0-.08.11-.17.15-.25A14.86,14.86,0,0,1,119,43.41l-.47.72c-.76,1.16-2.28,1.42-3.12,2.49-.2-.11-.26-.15-.59,0-.09-.52.75-1.23.08-1.55a19.85,19.85,0,0,1,2.9-3.9.42.42,0,0,0,.45.37,4.54,4.54,0,0,0,1.94-1m-7.57,4.68c-3.94,3.22-.53,2.28-.49,2.26A4.36,4.36,0,0,0,113,47c-3.71,4.13-14.31,8.71-22.15,5.44-2.08-.86-3.49-1.38.47,1.07a.21.21,0,0,1-.12,0c1.68.85,3.77,2,2.71,2v.08l0,0,0,0s0,0,2.9,1.1c-.18.07-.32.69,2.08.94a20.16,20.16,0,0,0,7.63-.72c-4.9,3.4-10.59,5.56-16.22,4.46l.5.2a12.22,12.22,0,0,0,3.45.72c0,.06,0,.15,0,.23a3.13,3.13,0,0,0,2.33.07c.53-.27.73-.32,4.1-.57-.75.61-1.8.32-2.58.86a.54.54,0,0,0,.21.31c4.26-.58,8.66-1.18,19.56-10a2.27,2.27,0,0,1,.48-.27l0,0c-.8.76-.8.76-7.59,6.51-1.62,1.38-4,1.53-5.47,3.09a1.17,1.17,0,0,1,.06.2l0,0,.07,0a2.93,2.93,0,0,0,1.06,0c-.67.27-1.48.62-2.48,1.07,0,0-.06,0,0,.35,1.92-.44,5.73-.93,8.25-2.44,3.74-2,10.8-8.27,14.07-15.06a1.45,1.45,0,0,1,.37-.5v.18c.13.24.13.24-.22,1.47a11.24,11.24,0,0,0,.64-1.76c.62-5.65-3.11-7.73-4-8.13a11.73,11.73,0,0,0-1.41-.52h0l-.12,0a18.38,18.38,0,0,0-2.43-.5,20.28,20.28,0,0,1-6.46,8.36"/>
    </clipPath>
  </defs>
  <title>white logored bull tv</title>
  <g>
    <path class="cls-1" d="M126.37,49.06c.08-.25.17-.5.25-.76l-.24.69s0,0,0,.07M90.05,53a2.88,2.88,0,0,0-.68-.34s.27.13.68.34m36.58-4.85v-.06c0-.19.09-.39.13-.57a25.51,25.51,0,0,1-7.08,10.43,5.56,5.56,0,0,0,.81-.64,4.18,4.18,0,0,0-.69.8c.25-.23.52-.46.79-.67-.08.18-.08.18-1.77,1.84a24.4,24.4,0,0,0,7.4-9.84l.14-.42c.09-.28.18-.57.25-.87m-.34,1.17,0,.09,0-.09M91.21,53.51,90.05,53a4.26,4.26,0,0,0,1.16.55"/>
    <path class="cls-1" d="M126.24,49.41v0l0-.08,0-.09,0-.14a.31.31,0,0,0,0-.08.25.25,0,0,0,0-.07l-.14.42"/>
    <path class="cls-1" d="M144.48,20.81H125.82V24.2h7.64V45.13H138V24.2h7.63V20.81Z"/>
    <path class="cls-1" d="M126.23,49.45l.11-.31a.83.83,0,0,0,0-.15l-.15.46M106.85,35.53a2.59,2.59,0,0,0-.5.25h.05c.29.05.29.05,1.46-.39l.09,0a4.54,4.54,0,0,0-1.1.17M94.47,45.12h0c-.62.34-1.23.69-1.84,1,.54-.32,1.26-.73,1.81-1m10.32-11.28a.23.23,0,0,1-.14,0h0l.14,0m5.29-1.17-.11,0a.64.64,0,0,1-.2,0l.31-.06m.63-.08h-.19c.89-.17,1.7-.29,2.42-.37l-.61.2a2.25,2.25,0,0,0-.33.08.09.09,0,0,1-.08.06l-.11,0a4.8,4.8,0,0,1-.66,0h-.44M93.79,23A31.55,31.55,0,0,0,83.64,29a11.69,11.69,0,0,1-3.3,2.31h0c-.16.37-.36.88-.52,1.25-.29.78-.43,1.19-.58,1.71a.35.35,0,0,0,0,.13c.24,0,.68-.23,2.33-1.24a65.86,65.86,0,0,1,7.1-3.93,3.4,3.4,0,0,1-1.46,2,9.23,9.23,0,0,1-.84.54c-1,.56-2,1-3,1.57-1.14.66-2.24,1.4-3.39,2l-.35.19c-.46.21-.72.1-.7-.32,0,0,0,0,0-.09-.06.23-.11.47-.19.76a28.33,28.33,0,0,0-.59,4.89,21.36,21.36,0,0,0,.85,6.59s0,.09.05.13l.27,0a12.74,12.74,0,0,0,.46,1.79c.5.35.3,1,.61,1.41a1.56,1.56,0,0,1,.53-.1l-.25.08a6.18,6.18,0,0,0,.84.24c0,.91,0,.91.09,1.12l.25-.17c1.41.31,1.41.31,2.13-.29l.58-.5c-.59.69-.59.69-.53,1.19.42.06.42.06,9-5.88h0c3.8-2.15,7.41-4.64,11.18-6.84-2.83.84-5.28,2.49-8,3.63l-2.37,1.39,0,0s-.12-.26-.18-.28h-.11a.34.34,0,0,1-.14,0,1.22,1.22,0,0,0-.6-.06.39.39,0,0,0-.14.08l-.21.1c-.08,0-.14.08-.23.1a.57.57,0,0,1-.29,0h-.15a1.31,1.31,0,0,1-.28,0c-.05-.06,0-.2.06-.25a1,1,0,0,0,.05-.18.07.07,0,0,1,.07-.06,1.09,1.09,0,0,0,.06-.11,1.18,1.18,0,0,1,.38-.39l.56-.38a3.07,3.07,0,0,1,.66-.38l.25,0c.11,0,.1-.07.15-.16s.06-.06,0-.11a1.27,1.27,0,0,0-.33-.16l0,0,0,0a.18.18,0,0,0-.13,0,2,2,0,0,0-.29.14,2.17,2.17,0,0,1-.33.19,1,1,0,0,0-.17.21l-.93.59-.07,0c-.08,0-.14,0-.21,0s-.42.13-.62.19a1.06,1.06,0,0,0-.45.16.93.93,0,0,0-.14.14,1.49,1.49,0,0,1-.35.27.63.63,0,0,1-.36.06H89.3a.42.42,0,0,1-.16,0h0s0,0,0-.05a.22.22,0,0,1,0-.11c.05-.07.14-.11.17-.21s-.39,0-.5,0a3.48,3.48,0,0,0-.68.25c-.18.09-.37.12-.55.21s-.39,0-.65,0a.33.33,0,0,1,0-.2A1.07,1.07,0,0,0,87,44a.07.07,0,0,0,0-.06l.27-.29c.19-.19.46-.32.66-.49s.46-.43.69-.66a1.1,1.1,0,0,0,.12-.11.07.07,0,0,0,.08,0s0-.1.07-.14a.1.1,0,0,0,.06-.05,3.59,3.59,0,0,1,.33-.25.28.28,0,0,0,.13-.11.28.28,0,0,0,0-.2c-.08,0-.12.12-.16.15A1.3,1.3,0,0,1,89,42a2.87,2.87,0,0,1-1,.32h-.48a1.31,1.31,0,0,1-.28,0c-.06-.08.12-.31.15-.35a3,3,0,0,1,.22-.28l.09-.15s0,0,.08-.06c.24-.14.46-.28.68-.43,0,0,.1-.08.16-.08a.31.31,0,0,0,.13,0,1.09,1.09,0,0,0,.17-.13c.26-.17.57-.28.85-.43s.7-.49,1.09-.68a1.84,1.84,0,0,1,.38-.17,1.25,1.25,0,0,0,.25-.09,2.84,2.84,0,0,1,.56-.33c.2-.1.42-.17.62-.27l.15-.12.16,0,.28-.14a1.14,1.14,0,0,1,.3-.13,1.83,1.83,0,0,0,.28-.14A.27.27,0,0,0,94,38s.07-.16,0-.21a1.22,1.22,0,0,0-.49.15c-.15.07-.31.11-.45.17a1.28,1.28,0,0,0-.23.14.14.14,0,0,1-.11,0h-.06a.46.46,0,0,0-.2.05l-.29.08a3,3,0,0,0-.56.29c-.22.12-.43.26-.66.37a5.54,5.54,0,0,1-.87.37c-.23.06-.45.14-.67.21L89,39.8c-.07,0-.08.06-.13.1a.58.58,0,0,1-.27.14c-.27.1-.54.22-.81.31-.09,0-.15.08-.24.08a1.52,1.52,0,0,1-.37,0h-.21a.92.92,0,0,1-.43-.09l-.11,0c.73-.51,1.46-1,2.22-1.44s1.65-1,2.5-1.4,1.82-.94,2.74-1.37,1.94-.89,2.91-1.3,2-.82,3-1.2,2-.74,3.06-1.08,2-.64,3-.93,2-.53,2.94-.76,1.85-.4,2.79-.57l1.28-.2a1.63,1.63,0,0,0,.33-.05,1.17,1.17,0,0,0,.2-.06l-.08,0,.61-.07a5.24,5.24,0,0,1,.56,0c.07,0,.5,0,.51.11s-.11.08-.17.1a1.75,1.75,0,0,0-.24.11h1s.2,0,.21.05,0,.05-.07.05l-.31.21a1.22,1.22,0,0,1-.35.14l-.72.2a8.26,8.26,0,0,1-1.09.18c-.08,0-.2,0-.16.12a.55.55,0,0,0,.22,0h.88a2.24,2.24,0,0,0,.45,0,1.08,1.08,0,0,1,.31,0c.13,0,.26.05.39.07a30.15,30.15,0,0,0-4.71.81,5.2,5.2,0,0,1-2.14.33,5.28,5.28,0,0,1,.36-.44c-.77-.12-5.39,1.48-5.7,2.3h0c-.06.13,0,.16.12.2a3.58,3.58,0,0,0,.92.08h1.94a7.48,7.48,0,0,0,1.57-.07,13.19,13.19,0,0,0,1.26-.4c.41-.13.81-.28,1.23-.39.09,0,.19-.05.28-.09a1.59,1.59,0,0,1,.2-.07c.1,0,.12.05.08.13s-.55.25-.68.29-.42.14-.63.23c0,.2.29.16.51.14l.2,0s0,0,.08,0h.12c.08,0,0,.22,0,.29a1,1,0,0,1-.15.24.6.6,0,0,1-.24.2c0,.17,1.07.07,1.17,0a5.84,5.84,0,0,1,.59-.2,1.65,1.65,0,0,0,.21,0l.31,0c.12,0,.22-.08.35-.1a1,1,0,0,1,.25,0h.27c.21,0,.42-.12.64-.15h.31l.55-.09c.24-.06.48-.09.71-.13a5.07,5.07,0,0,1,1,0,9.28,9.28,0,0,1,.92.15c.36,0-.07.28-.19.35a8.22,8.22,0,0,1-1.36.68,2.1,2.1,0,0,1-.92.21,1.31,1.31,0,0,0-.51.07,1.92,1.92,0,0,1-.32.09h-.31a3.34,3.34,0,0,0-.45,0l-.18.06H113a.65.65,0,0,0-.31,0c-.11.05-.11.08-.23.09h-.14a.71.71,0,0,0-.32,0,2,2,0,0,1-.8.13h-.09l-.06.05a5.34,5.34,0,0,1-.52.18c-.38.15-.73.36-1.13.48l-.23,0c-.24.06-.5.15-.73.2a2.24,2.24,0,0,1-.34.11,2.63,2.63,0,0,0-.51.24c-.08,0-.18.07-.26.12a1.17,1.17,0,0,1-.45.13l-.39.09c-.13,0-.18.11-.27.18s-.21,0-.3.09-.37.2-.56.3a1.28,1.28,0,0,1-.24.11,2,2,0,0,0-.36.23.61.61,0,0,0-.05.41h0a.09.09,0,0,1,0,0,1.42,1.42,0,0,0,.68,0,1.09,1.09,0,0,0,.26-.05c.13,0,.23,0,.35,0a2.24,2.24,0,0,0,.64-.23l.09-.05c2.77-.62,5.38-1.91,8.27-2.11,0,0,4.82-.21,8,1.28,1,.46,5.83,3.16,3.34,11l.24-.68a25.83,25.83,0,0,0,.89-4v-.1a24.72,24.72,0,0,0,.16-4.42,23.36,23.36,0,0,0-1.13-6.15l-.09-.15c-.09-.25.78-2.37-3.93-7.07-2-1.9-4.89-2.06-7.17-3.43a1,1,0,0,1,.82,0c-1.91-1.2-4.24-.93-6.27-1.71a1.16,1.16,0,0,1,1-.3c0-.09,0-.18,0-.28a10.93,10.93,0,0,1,6.72,1.11c-.19-.15-.38-.29-.57-.45a6.41,6.41,0,0,1,1.37.82l.07,0-.18-.14c-3.09-2.36-7.52-5.35-21.17.16l-1-.35s-1.15.63-1.16.62"/>
    <path class="cls-1" d="M85.05,23.31l.47-.48-.47.48m38.11,2-.06-.08,0,0,0,0Zm-6.27-5.77,0,0h0l0,0M85,23.33h0s0,0,0,0v0m30,2.38a5.47,5.47,0,0,0-1-.39,3.49,3.49,0,0,0-.5-.08l0,0a5.86,5.86,0,0,0,1.37.42l.08,0m13,12.47A27.12,27.12,0,0,0,127,32.51l-.37-1A26.52,26.52,0,0,0,123.71,26c-.31-.44-.32-.46-.7-.95l0,0h0a21.52,21.52,0,0,0-3.69-3.7,5.46,5.46,0,0,1,.7.5l-.18-.16c-4.1-3.55-8.18-4.66-13-5.22a19.69,19.69,0,0,1,10.08,3,24.47,24.47,0,0,0-11.16-3.66l-1.89-.05a28.18,28.18,0,0,0-8.58,1.55v0a38.26,38.26,0,0,0-4.54,1.76l-.16.08-.09.05-.45.23-.09,0-.28.16c-.21.12-.43.24-.63.37h0l-.47.29-.34.25-.92.71c-.59.49-.61.51-1.61,1.45,1.69-1.54,6.43-4.28,14.07-5.13a4.72,4.72,0,0,1-1.93.76c-4,.9-10,2.28-12.71,5l0,0c-.29.3-.53.59-1.27,1.46A20.55,20.55,0,0,0,82,27.23l-.5.83a1.4,1.4,0,0,0-.06.28l.23,0c-.57,2.34-.57,2.34-.57,2.36.9-.74.9-.74.94-.76a11.12,11.12,0,0,0-.63,1.53s0,0,0,0a7,7,0,0,0-.25.73l.18.24a12.2,12.2,0,0,1,1.25-.88l-.54.37c.37-.16.87-.35,1.25-.5-.38.49-.76.93-1.13,1.42a8.86,8.86,0,0,1,1.15-.71l.16.16c.57-.07.91-.26,2.52-1.19l1-.56c-1,.64-1.15.72-1.43,1.18.37,0,.37,0,2.39-1a42.14,42.14,0,0,1,9.62-3.15h0c7.64-1.26,7.64-1.26,12.82-1.1-1.86-.38-1.86-.38-8.48-.29C95.13,27,92.4,28,91.23,28.44c-1.93.73-2,.72-2.33.66,1.65-1.22,9.26-3.88,11.21-4.16,0,0-6.08.87-9.46,2.62a30.57,30.57,0,0,1-4.22,1.66c.87-.82,1.87-1.5,2.66-2.4-.78-.19-.78-.19-2.13.12,5.26-6.68,34.15-8.5,39.17,4.89A20.15,20.15,0,0,0,118,25.28c-1.23-.52-1.27-.56-1.52-.8l.22-.1c-.65-.38-4-1.42-5.35-1.17,4.79,1.2,12.23,4.72,12,6.59-2-.67-3.49-2.29-5.48-3,2.25,1.23,6,3.29,6.61,5.3-.06,0-.16.09-.22.14a7.4,7.4,0,0,1-.72-.53s0,0,0,0a21.94,21.94,0,0,0-4.84-3.29c-2.47-1.05-5.16-1.28-7.72-2.05,2.78,1.07,5.8,1.43,8.41,2.92a20.44,20.44,0,0,1,5.48,4.91c4.15,5.6,2.51,11.33,1.9,13.47l-.52,1.37.55-1.43a24,24,0,0,0,1.24-9.45M99.51,27h0c-.63.07-1.48.22-2.11.31.62-.11,1.46-.23,2.09-.32m8.89-10a32.18,32.18,0,0,0-3.4-.24h-.22a19.23,19.23,0,0,1,4.89.4c-.48-.08-.7-.1-1.27-.16M85.65,22.7a.74.74,0,0,1-.12.13l0,0,.09-.1M123,25.1l0-.05,0,0h0"/>
    <path class="cls-1" d="M109.39,61.84h0m10.8-21.27c0-.08.11-.17.15-.25A14.86,14.86,0,0,1,119,43.41l-.47.72c-.76,1.16-2.28,1.42-3.12,2.49-.2-.11-.26-.15-.59,0-.09-.52.75-1.23.08-1.55a19.85,19.85,0,0,1,2.9-3.9.42.42,0,0,0,.45.37,4.54,4.54,0,0,0,1.94-1m-7.57,4.68c-3.94,3.22-.53,2.28-.49,2.26A4.36,4.36,0,0,0,113,47c-3.71,4.13-14.31,8.71-22.15,5.44-2.08-.86-3.49-1.38.47,1.07a.21.21,0,0,1-.12,0c1.68.85,3.77,2,2.71,2v.08l0,0,0,0s0,0,2.9,1.1c-.18.07-.32.69,2.08.94a20.16,20.16,0,0,0,7.63-.72c-4.9,3.4-10.59,5.56-16.22,4.46l.5.2a12.22,12.22,0,0,0,3.45.72c0,.06,0,.15,0,.23a3.13,3.13,0,0,0,2.33.07c.53-.27.73-.32,4.1-.57-.75.61-1.8.32-2.58.86a.54.54,0,0,0,.21.31c4.26-.58,8.66-1.18,19.56-10a2.27,2.27,0,0,1,.48-.27l0,0c-.8.76-.8.76-7.59,6.51-1.62,1.38-4,1.53-5.47,3.09a1.17,1.17,0,0,1,.06.2l0,0,.07,0a2.93,2.93,0,0,0,1.06,0c-.67.27-1.48.62-2.48,1.07,0,0-.06,0,0,.35,1.92-.44,5.73-.93,8.25-2.44,3.74-2,10.8-8.27,14.07-15.06a1.45,1.45,0,0,1,.37-.5v.18c.13.24.13.24-.22,1.47a11.24,11.24,0,0,0,.64-1.76c.62-5.65-3.11-7.73-4-8.13a11.73,11.73,0,0,0-1.41-.52h0l-.12,0a18.38,18.38,0,0,0-2.43-.5,20.28,20.28,0,0,1-6.46,8.36"/>
    <g>
      <path class="cls-1" d="M109.39,61.84h0m10.8-21.27c0-.08.11-.17.15-.25A14.86,14.86,0,0,1,119,43.41l-.47.72c-.76,1.16-2.28,1.42-3.12,2.49-.2-.11-.26-.15-.59,0-.09-.52.75-1.23.08-1.55a19.85,19.85,0,0,1,2.9-3.9.42.42,0,0,0,.45.37,4.54,4.54,0,0,0,1.94-1m-7.57,4.68c-3.94,3.22-.53,2.28-.49,2.26A4.36,4.36,0,0,0,113,47c-3.71,4.13-14.31,8.71-22.15,5.44-2.08-.86-3.49-1.38.47,1.07a.21.21,0,0,1-.12,0c1.68.85,3.77,2,2.71,2v.08l0,0,0,0s0,0,2.9,1.1c-.18.07-.32.69,2.08.94a20.16,20.16,0,0,0,7.63-.72c-4.9,3.4-10.59,5.56-16.22,4.46l.5.2a12.22,12.22,0,0,0,3.45.72c0,.06,0,.15,0,.23a3.13,3.13,0,0,0,2.33.07c.53-.27.73-.32,4.1-.57-.75.61-1.8.32-2.58.86a.54.54,0,0,0,.21.31c4.26-.58,8.66-1.18,19.56-10a2.27,2.27,0,0,1,.48-.27l0,0c-.8.76-.8.76-7.59,6.51-1.62,1.38-4,1.53-5.47,3.09a1.17,1.17,0,0,1,.06.2l0,0,.07,0a2.93,2.93,0,0,0,1.06,0c-.67.27-1.48.62-2.48,1.07,0,0-.06,0,0,.35,1.92-.44,5.73-.93,8.25-2.44,3.74-2,10.8-8.27,14.07-15.06a1.45,1.45,0,0,1,.37-.5v.18c.13.24.13.24-.22,1.47a11.24,11.24,0,0,0,.64-1.76c.62-5.65-3.11-7.73-4-8.13a11.73,11.73,0,0,0-1.41-.52h0l-.12,0a18.38,18.38,0,0,0-2.43-.5,20.28,20.28,0,0,1-6.46,8.36"/>
      <g class="cls-2">
        <path class="cls-1" d="M85,37.1l42.33-3.7L130,64l-42.33,3.7L85,37.1Z"/>
      </g>
    </g>
    <path class="cls-1" d="M125.13,39.51a22.62,22.62,0,0,1-3.78,8.11c-.94,1.43-2.79,1.75-3.83,3.06-.24-.13-.32-.18-.72,0-.11-.65.92-1.52.1-1.91,1.38-3,4.51-4.9,5.47-8.18-.37.47-.64,1-1,1.49.42-1.45,1.07-2.82,1.39-4.3l-.22-.09c-.09.15-.19.34-.34.61A24.91,24.91,0,0,1,114.1,49c-4.83,4-.65,2.79-.6,2.77a8.22,8.22,0,0,0,1.09-.58c-5.76,6.4-25,13.68-33.87,1.26.08.12.18.31.27.43,2.15,3.27,2.15,3.27,7,6.28-.91-.16-1.56-.87-2.42-1.13,0,0,2.09,2.72,8.28,3.43,6.6.76,8.48.25,10.46-.29a22.82,22.82,0,0,1,3.23-.62l0,0c-4.88,1.49-4.88,1.49-10.32,1.83A10.69,10.69,0,0,1,94.11,62a11.7,11.7,0,0,0-2.93-.41.31.31,0,0,1,0,.09h-.06l.07,0c0,.05,0,.05,3.56,1.35-.22.08-1.26.23-5.58-1.62,0,0,5.18,2.47,8.11,2.76,9.62.94,16.54-3.71,23.24-8.22,0,0,0,.08,0,.11l.28,0c-.06.15-.06.15-.78,1,1.58-1.27,2.39-3.25,4.06-4.45-.15.7-5.37,9.09-17,11.79a9,9,0,0,0,1.35-.27c-.8.23-.82.25-1.16.36a11.66,11.66,0,0,0,1.3-.24,13.59,13.59,0,0,1-3.13.82c10.07-1.75,17.45-7.47,20.79-16.14A28.35,28.35,0,0,0,127,46a7.88,7.88,0,0,0-1.89-6.44"/>
    <path class="cls-1" d="M100.73,52.55a3.67,3.67,0,0,1-1.34-1.43c-.12-.2-.23-.41-.34-.61l-.12-.23a6.78,6.78,0,0,0-.49-.79,3.33,3.33,0,0,0-.25-.28l-.27-.29a1.79,1.79,0,0,1-.23-.26.69.69,0,0,1-.14-.21,29.29,29.29,0,0,1-1.89-7.73c-.22-1.55-1.16-2.8-2.7-4.68-.19-.23-.4-.51-.63-.8l-.49-.62A14.25,14.25,0,0,0,90.6,33.2c-.55-.47-1-.88-1.48-1.25-.62-.53-1.15-1-1.64-1.38A29,29,0,0,0,85,28.73a6.32,6.32,0,0,0-3.62-1.16,5,5,0,0,0-2.57.64A14.49,14.49,0,0,1,76,29.79c-.66.28-1.36.51-2.24.8l-.9.3a6,6,0,0,0-2.22,1.38l-.34.33-.35.34a1.7,1.7,0,0,1-.53.37,3,3,0,0,1-.75.12l-.56,0-.39,0a4.71,4.71,0,0,0-2.66,1.19c-.31.25-.6.51-.88.77l-.13.12a7,7,0,0,1-.83.68,4.87,4.87,0,0,1-2.43.69,12,12,0,0,0-1.36.19,7.62,7.62,0,0,0-1.65.55,13.82,13.82,0,0,0-2,1.19l-1,.7-.85.62a6.3,6.3,0,0,1-3.53,1.47,1.94,1.94,0,0,1-2.11-1.73,3.07,3.07,0,0,1,1.34-2.65l.53-.42c.39-.32.76-.61,1.09-.9a9,9,0,0,0,1.24-1.25,3.44,3.44,0,0,0,.59-3.18,3.35,3.35,0,0,0-2.63-2.32,11.78,11.78,0,0,0-1.58-.34l-.17,0-.42-.07a1.68,1.68,0,0,1-.35-.09,29.35,29.35,0,0,1-2.91-1.76l-.15-.1-.09.14a4.32,4.32,0,0,0,3,6.75.35.35,0,0,1,.29.26.37.37,0,0,1-.13.37c-2.65,2.09-3.21,3-3.35,5.33A5.27,5.27,0,0,0,46,43.57a6,6,0,0,0,4.46,1.72A10.57,10.57,0,0,0,52,45.16h.06a.35.35,0,0,1,.22.08.34.34,0,0,1,.13.25A9.23,9.23,0,0,0,53.23,49a.36.36,0,0,1-.06.46,1.74,1.74,0,0,1-.52.3,6.75,6.75,0,0,1-2.28.35c-.53,0-.93.37-1.25,1.16-.1.26-.19.53-.27.79l0,.08c0,.13-.08.26-.12.37l-.12.27a2.26,2.26,0,0,1-.49.57.32.32,0,0,1-.23.09h-.06a.36.36,0,0,1-.25-.18,1.78,1.78,0,0,0-1.23-.89h-.07a3.29,3.29,0,0,0-2.73,2,.39.39,0,0,1-.29.22h-.07a1.41,1.41,0,0,0-1.29.94,5.7,5.7,0,0,0-.2.76l0,.18c0,.19-.08.4-.13.6a1.85,1.85,0,0,1-.18.44l-.12.22-.09.14a1.29,1.29,0,0,0-.1,1,.87.87,0,0,0,.5.54,3.12,3.12,0,0,0,.79.29,6.59,6.59,0,0,0,1.23.18.6.6,0,0,0,.23-.06,1.77,1.77,0,0,0,.17-.12.38.38,0,0,1,.23-.08h.06l.26,0,.76.15h0L46,60l.28.05.19,0h0a2.24,2.24,0,0,0,1.9-.91,2.49,2.49,0,0,0,.25-.38l.13-.21.09-.17c.09-.15.18-.29.28-.43a.38.38,0,0,1,.29-.15h.09a3.11,3.11,0,0,0,.37.08,5.51,5.51,0,0,0,.6.07h.21a3.84,3.84,0,0,0,2.51-1.15l.21-.18.3-.25A4,4,0,0,1,54.2,56a1.56,1.56,0,0,1,.85-.31h.07c.25,0,1.21.08,2.84.33a.76.76,0,0,0,.21,0,3.64,3.64,0,0,0,1.39-.38A11,11,0,0,0,60.87,55a3.21,3.21,0,0,1,.37-.18l0,0,.42-.2a2.87,2.87,0,0,0,1-.76,9,9,0,0,0,.68-1.21l.26-.55.46-.93a.36.36,0,0,1,.32-.2h.1a13.17,13.17,0,0,0,1.63-.15l.68-.11c.48-.08.9-.14,1.21-.16l.56,0,.65,0c.81.05,1.47.07,2,.07.28,0,.57,0,.85,0a5.2,5.2,0,0,0,1.16-.19l.28-.1a.35.35,0,0,1,.14,0,.35.35,0,0,1,.25.1l.56.52a.33.33,0,0,1,.1.37.35.35,0,0,1-.31.25l-.21,0a1.3,1.3,0,0,0-.84.39.35.35,0,0,1-.28.14l-.15,0L72.64,52a1.53,1.53,0,0,0-.3,0h-.45a11.05,11.05,0,0,0-1.73.11,3.06,3.06,0,0,0-1,.29.76.76,0,0,0-.44.7,7.47,7.47,0,0,0,1.63,3.12,1.69,1.69,0,0,0,1,.26h.18a.34.34,0,0,1,.31.19,3.58,3.58,0,0,0,2.84,2.17h.07a21.18,21.18,0,0,0,5.53-1.89l.08,0,.2,0,.37,0,.19,0a4.42,4.42,0,0,0,1.23-.28A3.89,3.89,0,0,0,83.57,55a.4.4,0,0,1,.32-.2h0a.37.37,0,0,1,.31.26,2.19,2.19,0,0,0,.17.41,1.74,1.74,0,0,0,1.7.9h.13A6.66,6.66,0,0,0,87.92,56l.3-.1a8.37,8.37,0,0,1,1.28-.36,3.52,3.52,0,0,1,.5-.05h.27l.5,0,.35,0,.51,0a2.77,2.77,0,0,0,1.22-.23A5.7,5.7,0,0,0,94,54.67l.1-.07a.34.34,0,0,1,.44,0A6.67,6.67,0,0,0,99,56.28h.23a1.43,1.43,0,0,0,1.16-.5.77.77,0,0,0,.14-.67.37.37,0,0,1,0-.29.4.4,0,0,1,.24-.16,1.78,1.78,0,0,0,.88-.38,1,1,0,0,0,.32-.65.51.51,0,0,0-.16-.38,4.8,4.8,0,0,0-1.09-.7M84.93,49.8c-.24.3-.6.39-.93,1-.67-.26-.78-1.14-.91-1.52l2.44-.44a3.24,3.24,0,0,0-.6,1"/>
    <g>
      <path class="cls-1" d="M100.21,53.14c-1.24-.71-1.74-2.08-2.5-3.15-.27-.4-.74-.65-1-1a28.56,28.56,0,0,1-1.89-7.58,7.64,7.64,0,0,0-.7-2,44.48,44.48,0,0,0-4-5.13c-.13-.12-.13-.14-.39-.39l-4.9-4.06a10.25,10.25,0,0,0-2-1.05,5,5,0,0,0-3.44.13,21.73,21.73,0,0,1-3.11,1.74c-1.61.72-3.43.87-4.81,2.1-.8.71-1.48,1.8-2.68,1.62a5.07,5.07,0,0,0-3.54,1.26,6.84,6.84,0,0,1-3,2c-1,.44-2.29.23-3.34.62-1.67.41-3,1.74-4.41,2.75-1.43.83-2.79,1.71-4.56,1.67a3.05,3.05,0,0,1-2.64-2,3.33,3.33,0,0,1,1.05-3.47c1-1.26,2.72-2,3.54-3.45a2.67,2.67,0,0,0-.2-2.72c-1.1-1.13-2.67-1.17-4.09-1.52a12.6,12.6,0,0,1-2.42-1.38A2.49,2.49,0,0,0,45,29.65a3.76,3.76,0,0,0,2.4,2.93c.72.31,1.55.08,2.29.25a.67.67,0,0,1,.43.52.82.82,0,0,1-.24.55A23.3,23.3,0,0,0,46.49,37a4.58,4.58,0,0,0-.62,4.47,4.8,4.8,0,0,0,3.88,2.87,8.83,8.83,0,0,0,3.3-.36c.15,0,.21.15.27.23a20.63,20.63,0,0,0,.17,2.66A15,15,0,0,0,54.23,49a1,1,0,0,1-.18.77,9.18,9.18,0,0,1-1.88,1l-1.61.11-.31.14a8.39,8.39,0,0,0-1,2.21A5.89,5.89,0,0,1,47.1,55a5.16,5.16,0,0,1-.86,1.11,1.63,1.63,0,0,1-1,.35,4.73,4.73,0,0,0-.83,2.4c.91.08,1.86.57,2.75.08s.93-1.28,1.5-1.84,1.14-.13,1.67,0c.81,0,1.39-.54,2.06-.81.48-.31.87-.85,1.36-1.16a5.65,5.65,0,0,1,3.26,0,3.5,3.5,0,0,0,2.29-.23,6.9,6.9,0,0,1,2-1.05,3.07,3.07,0,0,0,1.21-1.66c.21-.55.75-1,.71-1.63-.17-.14-.35-.45-.6-.43-.31.43-.54.89-.89,1.3-1.49,2-2.66,2.23-5.69,2.24A7,7,0,0,0,50.23,56a.28.28,0,0,1-.33-.06,1.59,1.59,0,0,1,.25-.84c1.38-2,3.53-2.42,5.8-2.46a8.89,8.89,0,0,0,3.46-.83,5.32,5.32,0,0,0,2.48-2.69c.26-1.3.36-2.7.69-3.94,0-.13.35-.22.45-.18s.37.14.38.28c-.23,1.28-.64,2.78-.15,4,1,1.3,2.83.6,4.17.53a24.87,24.87,0,0,1,3.87.07c.66,0,1.15.14,1.67-.27a1.23,1.23,0,0,0,.16-.79c0-.37-.36-.59,0-.9a.5.5,0,0,1,.5.07,5.48,5.48,0,0,0,.6,1.53,7.87,7.87,0,0,0,2.54,2A3.41,3.41,0,0,1,78.41,54c0,.53-.5.9-.91,1.15a4.21,4.21,0,0,1-2.29.56c-1.09-.53-1.38-1.69-2.1-2.53a1.77,1.77,0,0,0-1.49-.46,8.57,8.57,0,0,0-1.73.27.56.56,0,0,0-.17.5c.37.68.79,1.34,1.2,2,.48.29,1.14-.17,1.55.35a5.84,5.84,0,0,0,1.11,1.59,2,2,0,0,0,2,.37A25.65,25.65,0,0,0,80,56.07h.47a2.45,2.45,0,0,0,1.63-.46,15.83,15.83,0,0,0,1.17-2,2,2,0,0,0,0-1.71,9.77,9.77,0,0,1-1.46-2.83,3.21,3.21,0,0,0-1.06-.29c-.18.08-.45.05-.55.25l1.63,3.22a1.76,1.76,0,0,1,.17.93A4.23,4.23,0,0,1,80.94,55c-.1.06-.22.12-.31,0a7.35,7.35,0,0,0,.48-2.27l-1.6-2.87c-.18-.39-.51-.75-.49-1.2a.52.52,0,0,1,.35-.43c.7-.23,1.54-.19,2.08-.75a7.88,7.88,0,0,0,1-3.46.52.52,0,0,1,.33-.24c.13,0,.27.13.33.2a5.34,5.34,0,0,1-.91,4c0,.14-.1.33.07.43a3,3,0,0,0,2.26-.35,13.12,13.12,0,0,0,2.4-.31c.08,0,.17.12.17.2a3.91,3.91,0,0,0-.95,2c-.62.64-1.51,1.2-1.57,2.12.1.46.5,0,.76.07a.23.23,0,0,1,.21.24l-.62.91c-.33.54.07,1.15.07,1.67a1.11,1.11,0,0,0,1.07.62,8.94,8.94,0,0,0,2.58-.69,5.64,5.64,0,0,1,3-.2,4.22,4.22,0,0,0,2.41-1.35,1.46,1.46,0,0,1,1,.56,5.29,5.29,0,0,0,4.19,1.66l.14-.08a.24.24,0,0,0-.06-.37l-1-.49a3.89,3.89,0,0,1-1.75-1.77,9.24,9.24,0,0,0-1-2.09c-.15-.33-.48-.6-.62-.93,0,0,.08-.1.14-.08a4.42,4.42,0,0,1,2.21,2.37,3.56,3.56,0,0,0,3.41,1.78l.12-.11a.23.23,0,0,0,0-.25l-.74-.37M84,38.63l-.05,0v0a.21.21,0,0,1-.27,0l0,0v0A13.31,13.31,0,0,0,83,36.12l-.19-.32-.08-.11-.16-.23a.78.78,0,0,1-.09-.82l0,0a.6.6,0,0,1,.6-.1l0,0a2.71,2.71,0,0,1,.75.93,4.63,4.63,0,0,1,.31,1.72A5.72,5.72,0,0,1,84,38.61l.05,0m7.87,13.59v0s0,0,0,0a3.56,3.56,0,0,1-1.29.14h0l-.08,0-.09-.05a.21.21,0,0,1-.08-.24,2,2,0,0,1,1.38-1.29h.15l.15,0a.31.31,0,0,1,.23.26,2.88,2.88,0,0,1,0,.32,1,1,0,0,1-.34.86M94.4,46.6l-.06.17-.06.18a.39.39,0,0,1-.29.29.24.24,0,0,1-.22,0,.23.23,0,0,1-.1-.21l0-.18-.06-.64a1.63,1.63,0,0,0-.28-.71L93,45.14s-.32-.36-.32-.36a1,1,0,0,0-.69-.36,1.15,1.15,0,0,0-.51.36l-.22.27-.19.26c-.07.12-.23,0-.23,0h0a.1.1,0,0,0,0,0,.83.83,0,0,1-.06-.35,1.33,1.33,0,0,1,.11-.52l.17-.34.19-.41,0,0a.75.75,0,0,0,.17-.32l.06-.14.11-.29a.54.54,0,0,1,.79-.31,1.72,1.72,0,0,1,.61.62l.09.16.12.19.24.31a3.24,3.24,0,0,1,1,2.18,2.57,2.57,0,0,1-.06.55"/>
      <path class="cls-1" d="M45.45,55.48a4.13,4.13,0,0,0,1.38-1.67c-.06-.23-.29-.39-.48-.56s-.3,0-.45,0a11.55,11.55,0,0,1-1.42,1c-.21.14-.12.45-.17.67s.25.36.37.48a1.08,1.08,0,0,0,.77,0m-2.17.07a1.37,1.37,0,0,0-.76.84c-.1.66,0,1.28-.47,1.76,0,.12-.15.27,0,.39a7,7,0,0,0,1.44.39c.25-.81.43-1.7.72-2.39v-.21c-.24-.31-.5-.7-.91-.78m31.29-2.22c.41.46.39,1.15.87,1.5a2.09,2.09,0,0,0,1.65-.51c.26-.23-.13-.52-.17-.79-.27-.39-.08-1.17-.74-1.19a13.24,13.24,0,0,1-2,.12l-.19.13c-.12.39.45.39.56.74"/>
    </g>
    <path class="cls-1" d="M141.94,45.12h0m17-20.84h0A4.07,4.07,0,0,0,154.7,21a.91.91,0,0,0-.67.18c-.11.18.26.43.43.54,2.59,1.54.57,6-2,10-3.71,5.11-5.56,7.41-5.56,7.41-.45.63-.81.4-.81-.5V26.32h-4.19V43.49a1.87,1.87,0,0,0,1.76,1.63h1.42a2.82,2.82,0,0,0,2.44-1.24l10-14.86c.38-.55,1.92-2.72,1.36-4.74"/>
  </g>
</svg>
