<svg id="Layer_1" data-name="Layer 1" xmlns="http://www.w3.org/2000/svg" viewBox="0 0 200 80.93">
  <defs>
    <style>
      .cls-1 {
        fill: #fff;
      }

      .cls-2 {
        fill: #fcfcfc;
      }

      .cls-3 {
        fill: #f9f9f9;
      }

      .cls-4 {
        fill: #fbfbfb;
      }
    </style>
  </defs>
  <title>white logopokemon go</title>
  <g>
    <path class="cls-1" d="M134.48,42a31.06,31.06,0,0,1,.4-3.2c-1,.2-1.9.5-2.9.7.1.6.2,1.2.3,1.9,0,.2,0,.4-.2.5a8.26,8.26,0,0,0-1.3.7,1.06,1.06,0,0,1-.8.1l-8.8-1.5a.76.76,0,0,1-.4-.1l-.3-2.4c-.5.3-1,.5-1.5.8-.3-.6-.7-1.2-1-1.9-.5.2-.9.5-1.4.7a.75.75,0,0,1-.5.1c-2.4-.4-4.7-.7-7.1-1.1-.4-.1-.7-.1-1.1-.2.2-1.1.4-2.3.6-3.5a12.14,12.14,0,0,1-4.5,1.6v6a.55.55,0,0,1-.3.5c-.5.2-.9.5-1.4.7a.45.45,0,0,1-.5,0l-13.2-6.3c-.1,0-.2-.1-.4-.2v4.3a.46.46,0,0,1-.3.5l-.6.3a7.87,7.87,0,0,1-3,.8c-1.7.3-3.5.5-5.2.7h-.3c-.1-.9-.2-1.9-.3-2.8-.1.1-.2.2-.3.2a10.38,10.38,0,0,1-4.5,2.1,7.54,7.54,0,0,1-8-3.5c-.1-.1-.1-.2-.2-.3.5,2,1.1,4,1.6,6v.1a9.33,9.33,0,0,0-2,1,5.94,5.94,0,0,1-.8.4c-2.4.8-4.9,1.5-7.3,2.3a.37.37,0,0,0-.3.1c-1.4-3.1-2.8-6.1-4.2-9.2-1.5-2.9-2.9-5.9-4.3-9a2.27,2.27,0,0,0-1.1.6h-.7c.5-.2.2-.5,0-.8-1.5-2.4-3-4.8-4.5-7.3-.1-.1-.1-.2.1-.4a9.23,9.23,0,0,1,2.9-2.3,29.87,29.87,0,0,1,8.8-3.7,22.24,22.24,0,0,1,5.7-.7,14.11,14.11,0,0,1,5.7,1.1,10.69,10.69,0,0,1,4.3,3.6,7.34,7.34,0,0,1,1,5.6.76.76,0,0,1-.1.4,9.57,9.57,0,0,1,6.7-1.7v-.1c0-.4-.1-.7-.1-1.1a8.33,8.33,0,0,0-1.5.4c-.2.1-.3,0-.3-.2-.1-1.7-.2-3.3-.3-5a.52.52,0,0,1,.2-.4,20.7,20.7,0,0,1,4.7-1.8c2.4-.8,4.9-1.5,7.3-2.3a.37.37,0,0,0,.3-.1v1.4l.1-.1c.1-.4.5-.6.9-.8s.7-.4,1.1-.6a.45.45,0,0,1,.5,0c1.4,1.3,2.9,2.5,4.3,3.7l1.8,1.5c.1.1.3.2.4.1.4-.2.9-.5,1.4-.7-.5-.5-.9-1.1-1.4-1.6l.3-.3,7.4-8.3c.2,0,.4-.2.7-.3s.8-.4,1.3-.6c.1-.1.2-.1.4,0,1.4,2,2.8,4,4.1,6a.1.1,0,0,0,.1.1c-2.1,1.1-4.1,2.2-6.2,3.2v.1a9.72,9.72,0,0,1,6.4,2.5,7.72,7.72,0,0,0,.2-1.5,1.38,1.38,0,0,1,1-1.4,4.38,4.38,0,0,1,2.3-.6c1.4.1,2.8,0,4.2,0,.2,0,.3-.1.4-.1l1.8-.9h6.7c.3,0,.3.1.4.3l1.5,9c0,.1.1.2.1.4.1-.1.2-.1.3-.2a8.58,8.58,0,0,1,4.9-1.5.27.27,0,0,0,.3-.3c0-1.5,0-3.1-.1-4.6a.55.55,0,0,1,.3-.5c.5-.2.9-.5,1.4-.7a.6.6,0,0,1,.4-.1c3.4.7,6.8,1.4,10.2,2.2a.27.27,0,0,1,.3.3,2.35,2.35,0,0,0,.2.8l1.2-.6a.75.75,0,0,1,.5-.1c2.8.7,5.6,1.3,8.5,2,.1,0,.2.1.3.1-.2.7-.5,1.4-.7,2.1-1.5,4.3-3,8.6-4.4,13-1.1,3.3-2.3,6.6-3.4,9.9a1,1,0,0,1-.5.6c-.5.2-.9.5-1.4.7a.3.3,0,0,1-.4,0c-2.1-.6-4.1-1.3-6.2-1.9-.2-.1-.2-.1-.2-.3v-2c0-.3-.1-.3-.3-.4-1.2-.2-2.4-.3-3.6-.5A19.66,19.66,0,0,1,134.48,42Zm-83-16.5c.1.1.1.2.2.3.9,1.9,1.8,3.8,2.7,5.8,1.9,4.2,3.9,8.4,5.8,12.6a.42.42,0,0,0,.6.3c.8-.3,1.7-.5,2.5-.8.3-.1.4-.2.3-.5-.8-2.9-1.6-5.8-2.4-8.8-.1-.3,0-.4.2-.6.5-.3,1-.7,1.5-1a10.23,10.23,0,0,0,4.3-5.3,6.06,6.06,0,0,0,.1-4.4,7.28,7.28,0,0,0-5.1-4.4,14.68,14.68,0,0,0-7.5-.2,26.27,26.27,0,0,0-7.3,2.5c-.3.2-.7.3-1,.5,0,.1.1.1.1.2.9,1.5,1.9,3,2.8,4.6.1.2.2.2.4.1A15,15,0,0,1,51.48,25.47Zm95.7,6.1h0c-.1-.1-.2-.2-.2-.3-.4-1.6-.7-3.2-1.1-4.8s-.7-3.4-1.1-5.1c-.1-.3-.2-.4-.5-.4s-.4-.1-.6-.1l-4.8-.9h-.3c0,.2-.1.4-.1.6a.22.22,0,0,0,.2.2,2.92,2.92,0,0,0,.9.2c.4.1.4.1.3.5l-.3,2.7a.73.73,0,0,0,.2.6,5.22,5.22,0,0,1,1.4,1.9,7.8,7.8,0,0,1,.1,6,10.4,10.4,0,0,1-2.6,3.7c-.1.1-.3.3-.3.4-.1.8-.2,1.7-.3,2.5a.27.27,0,0,0,.3.3c.9.1,1.8.3,2.7.4.2,0,.3,0,.3-.2l1.5-8.4c.1-.6.6-.8,1-1.3,0,.5.1.9.1,1.4.1,2.5.1,5,.2,7.5,0,1.3.1,2.6.1,3.9,0,.3.1.4.3.4.9.2,1.7.5,2.6.7.2.1.3,0,.4-.2,2.3-6.7,4.6-13.4,6.8-20.1.1-.4.1-.4-.3-.5-1.3-.3-2.6-.5-3.8-.8-.4-.1-.4-.1-.5.3-.7,2.6-1.3,5.3-2,7.9,0,.1-.1.2-.2.3C147.68,31.07,147.38,31.37,147.18,31.57Zm-59.4-3.2c.1-.1.1-.2.2-.2.4-.5.9-.9,1.3-1.4,1.6-1.6,3.2-3.2,4.7-4.8.1-.2.2-.3,0-.4l-3.3-3a10,10,0,0,1-1.1-1c-1.6,2.2-3.2,4.4-4.8,6.5,0-.1-.1-.1-.1-.2-.1-1.2-.2-2.4-.2-3.7-.1-.8-.1-1.7-.2-2.5,0-.3-.1-.3-.4-.2-1.6.5-3.2.9-4.7,1.4-.4.1-.4.1-.4.6,0,.8,0,.7.7.5.4-.1.8-.2,1.1-.3,0,.1.1.2.1.3.1.7.1,1.5.2,2.2.1,1.2.2,2.5.3,3.7a.86.86,0,0,0,.3.6,6.78,6.78,0,0,1,1.9,4.6,8.68,8.68,0,0,1-1.2,4.7.66.66,0,0,0-.1.6,24.62,24.62,0,0,1,.2,2.6c0,.3.1.3.4.3l2.5-.3a.27.27,0,0,0,.3-.3V33c0-.6-.1-1.1.4-1.6s.5-.5,1.2-.2c4.5,2.2,9.1,4.4,13.6,6.6.1,0,.2.1.4.1v-2.4c0-.4.1-.6-.5-.6h-.2a8.82,8.82,0,0,1-6.5-4.2c-.1-.1-.2-.2-.3-.2-1.5-.6-3.1-1.2-4.7-1.8A3.54,3.54,0,0,1,87.78,28.37Zm41,10.7a.1.1,0,0,1,.1-.1c-.2-.1-.5-.3-.7-.4a6.87,6.87,0,0,1-3.6-6.9,8.82,8.82,0,0,1,2.2-4.9.6.6,0,0,0,.1-.4l-.6-3.9c-.3-1.7-.5-3.3-.8-5,0-.2-.1-.3-.4-.3h-2.2c-.2,0-.3.1-.4.3-.3,1.9-.7,3.8-1,5.8a2.49,2.49,0,0,1-1.1,1.6c0-.1-.1-.2-.1-.3-.4-2-.7-3.9-1.1-5.9,0-.3-.1-.4-.4-.4h-3.6c-.3,0-.4.1-.4.3-.4,2.5-.8,5-1.3,7.5a1.23,1.23,0,0,0,.5,1.4,6.47,6.47,0,0,1,.9.8c-.7.7-1.3,1.3-1.9,2a2.19,2.19,0,0,0-.3.5,20,20,0,0,0-.4,2.4c-.1.5-.1.9-.2,1.4.1,0,.2.1.3.1l3.5.6c.4.1.4.1.5-.4.3-1.7.6-3.5.8-5.2.1-.7.6-1,1-1.4.9,1.9,1.8,3.7,2.7,5.6.1-.2.1-.3.2-.4.4-.9.7-1.9,1.1-2.8.2-.5.6-.7,1-1.1,0,.3.1.4.1.6.4,2.7.8,5.4,1.3,8.1a.37.37,0,0,0,.4.4l1.9.3C127.48,39,128.08,39.07,128.78,39.07Zm-25.9-10.2h0c0-.1,0-.2.1-.2.6-.6,1.2-1.3,1.8-1.9,1.4-1.5,2.8-2.9,4.3-4.4.2-.2.2-.3,0-.5a9,9,0,0,0-1-.9,7.69,7.69,0,0,0-5.1-1.5,9.66,9.66,0,0,0-4.4,1.2,7.1,7.1,0,0,0-1.4,1,6,6,0,0,0-1.4,4.8,5.88,5.88,0,0,0,3.2,4.9,9.22,9.22,0,0,0,4.9,1,12.56,12.56,0,0,0,6.5-2.4c.2-.1.4-.3.7-.5-.1-.1-.2-.1-.3-.2-.9-.8-1.8-1.6-2.8-2.4-.3-.3-.3-.3-.6,0a6.33,6.33,0,0,1-2.4,1.6A13,13,0,0,0,102.88,28.87ZM75,26.67a8.57,8.57,0,0,0-2.7.5,5.27,5.27,0,0,0-2.4,1.4,7.15,7.15,0,0,0-2,5.4,5.2,5.2,0,0,0,3,4.5,6.69,6.69,0,0,0,5.7,0,6.13,6.13,0,0,0,2.3-1.5,7.31,7.31,0,0,0,1.7-3.4,6,6,0,0,0-.9-4.7A5.61,5.61,0,0,0,75,26.67ZM132.68,37a6.84,6.84,0,0,0,2.9-.6,5.71,5.71,0,0,0,2.1-1.3,7,7,0,0,0,1.8-5,5.08,5.08,0,0,0-3.4-4.5,6.66,6.66,0,0,0-5,.3,6.25,6.25,0,0,0-2,1.3,6.38,6.38,0,0,0-1.6,2.9,5.12,5.12,0,0,0,.9,4.9A5.23,5.23,0,0,0,132.68,37Zm-25.5-23.6c-.7-.9-1.3-1.8-2-2.7a.31.31,0,0,0-.1.2c-1.2,1.3-2.3,2.7-3.5,4-.3.4-.3.4,0,.8,0,.3.1.3.4.1,1.1-.5,2.2-1.1,3.4-1.6C105.88,14,106.48,13.67,107.18,13.37Zm-15.5,13.4c.8.3,1.5.6,2.2.8-.1-.9-.1-1.8-.2-2.8Z"/>
    <path class="cls-2" d="M60.48,31.57c-.1-.2-.1-.4-.2-.6-.7-2.1-1.3-4.1-1.9-6.2-.1-.4.1-1,.4-1.1a7.6,7.6,0,0,1,3.3-.5c2.3.5,3,2.2,2.5,4.2a4.06,4.06,0,0,1-1.6,2.3c-.8.6-1.6,1.2-2.3,1.7Zm2.5-4.4c-.2.2-.3.4-.5.6.2-1.7-.5-2.8-1.6-2.6.4,1.1.7,2.2,1.1,3.4A2.81,2.81,0,0,0,63,27.17Z"/>
    <path class="cls-1" d="M76,27.37c-.4.3-.6.8-1.3.9-.3,0-.4.2-.5.5a1.79,1.79,0,0,0,1.4,2,3.3,3.3,0,0,0,1.4,0c.3-.1.5-.2.5-.5v-.2c-.1-.5.2-.8.5-1.1l.3-.3c.1.1.1.2.2.3a2.56,2.56,0,0,1,.1,2.4,5.18,5.18,0,0,1-3,2.8,3.6,3.6,0,0,1-3.8-1.1,2.72,2.72,0,0,1-.3-3.2,5.09,5.09,0,0,1,3.6-2.6,2.77,2.77,0,0,1,.9.1Z"/>
    <path class="cls-3" d="M134.88,25.77a6,6,0,0,1-.8.8c-.1.1-.4.1-.6.2-.4.1-.5.2-.5.7a1.73,1.73,0,0,0,1.7,1.9,3.75,3.75,0,0,0,1.1-.1.43.43,0,0,0,.4-.6c-.1-.8.5-1,.9-1.4a2.39,2.39,0,0,1,.4,2,3.92,3.92,0,0,1-1.4,2.3,4,4,0,0,1-3.3,1.2,3.18,3.18,0,0,1-3-3.2,3.55,3.55,0,0,1,.8-2,4.51,4.51,0,0,1,2.7-1.8A2.21,2.21,0,0,1,134.88,25.77Z"/>
    <path class="cls-2" d="M130.58,62.67l-6.6-1.2a6.63,6.63,0,0,0-2.2-6.3,6.72,6.72,0,0,0-4.5-1.6,6.61,6.61,0,0,0-6.2,6.7c-2.3,0-4.5-.1-6.8-.1a11.58,11.58,0,0,1,1.1-5.2,13.34,13.34,0,0,1,5.3-6.2,13.11,13.11,0,0,1,14.9.7A13.35,13.35,0,0,1,130.58,62.67Z"/>
    <path class="cls-4" d="M123.88,62l6.6,1.2a13.24,13.24,0,0,1-26.2-2.5h.2c1.7,0,3.5.1,5.2.1h1.2a.27.27,0,0,1,.3.3,6.48,6.48,0,0,0,12.4,1.6c.1-.1.1-.2.1-.4C123.78,62.27,123.78,62.17,123.88,62Z"/>
    <path class="cls-1" d="M122.78,60.27a5.32,5.32,0,0,1-5.2,5.3,5.25,5.25,0,0,1-5.2-5.3,5.16,5.16,0,0,1,5.2-5.2A5.1,5.1,0,0,1,122.78,60.27Zm-3.2.2c-.3,1.2-1,1.8-1.9,1.8a2.66,2.66,0,0,1-1.2-.3,2.14,2.14,0,0,1-.9-1.5h-2.7a4.72,4.72,0,0,0,2.4,3.9,4.38,4.38,0,0,0,4.9-.2,4.78,4.78,0,0,0,2.1-3.8A24.37,24.37,0,0,1,119.58,60.47Zm-2-1.8a1.64,1.64,0,0,0-1.6,1.6,1.58,1.58,0,0,0,1.6,1.6,1.6,1.6,0,1,0,0-3.2Z"/>
    <path class="cls-1" d="M74.78,63.07c2.3-.3,4.6-.7,6.9-1,1.1,3,3.2,4.7,6.5,4.7a6.47,6.47,0,0,0,5.8-3.7h-6.2v-1.6c4.6-.4,9.2-.7,13.8-.8a13.53,13.53,0,0,1-26.8,2.4Z"/>
    <path class="cls-1" d="M93,56a6.56,6.56,0,0,0-11.4,5.5c-2.3.3-4.6.7-6.9,1a13.55,13.55,0,0,1,23.5-11.3C96.48,52.87,94.68,54.37,93,56Z"/>
    <path class="cls-4" d="M87.78,60.77v-3.9h13c.3,0,.4.1.4.4.1.9.2,1.7.3,2.6v.2C97,60.27,92.38,60.57,87.78,60.77Z"/>
    <path class="cls-1" d="M103.88,22.77l-3,3.3a1.59,1.59,0,0,1-.3-1.3.6.6,0,0,1,.1-.4,1.36,1.36,0,0,1,1.5-1.2,2,2,0,0,1,.8.1.37.37,0,0,0,.5-.2l.3-.3Z"/>
    <path class="cls-1" d="M119.58,60.47h2.7a4.78,4.78,0,0,1-2.1,3.8,4.39,4.39,0,0,1-4.9.2,4.51,4.51,0,0,1-2.4-3.9h2.7a2.37,2.37,0,0,0,.9,1.5,1.8,1.8,0,0,0,1.2.3A2.21,2.21,0,0,0,119.58,60.47Z"/>
  </g>
</svg>
