<?xml version="1.0" encoding="utf-8"?>
<!-- Generator: Adobe Illustrator 22.1.0, SVG Export Plug-In . SVG Version: 6.00 Build 0)  -->
<svg version="1.1" id="Layer_1" xmlns="http://www.w3.org/2000/svg" xmlns:xlink="http://www.w3.org/1999/xlink" x="0px" y="0px"
	 viewBox="0 0 250 18.4" style="enable-background:new 0 0 250 18.4;" xml:space="preserve">
<style type="text/css">
	.st0{fill:#FFFFFF;}
	.st1{clip-path:url(#SVGID_2_);}
</style>
<g>
	<title>fico white</title>
	<g id="FICO_logo">
		<g id="g3420">
			<g id="g1019">
				<path id="path1021" class="st0" d="M117.3,5.4V2.9H109v11.6h2.5v-4.1h5V7.9h-5V5.4L117.3,5.4L117.3,5.4z"/>
			</g>
			<path id="path1023" class="st0" d="M120.6,14.5h-2.5V2.9h2.5V14.5z"/>
			<g id="g1025">
				<g>
					<g>
						<defs>
							<rect id="SVGID_1_" x="115.1" y="0" width="31.9" height="18.4"/>
						</defs>
						<clipPath id="SVGID_2_">
							<use xlink:href="#SVGID_1_"  style="overflow:visible;"/>
						</clipPath>
						<g class="st1">
							<g id="g1027">
								<g id="g1033">
									<path id="path1035" class="st0" d="M129.8,11.2c-1.4,1.3-3.7,1.3-5-0.1c-1.3-1.4-1.3-3.7,0.1-5c1.3-1.3,3.5-1.3,4.9,0
										c0.3-0.8,0.7-1.5,1.3-2.1c-2.6-2.1-6.4-1.5-8.4,1c-2,2.6-1.5,6.4,1,8.4c2.2,1.7,5.2,1.7,7.4,0
										C130.6,12.7,130.2,12,129.8,11.2"/>
								</g>
								<g id="g1037">
									<path id="path1039" class="st0" d="M136.5,12.2c-2,0-3.6-1.6-3.6-3.6s1.6-3.6,3.6-3.6s3.6,1.6,3.6,3.6l0,0
										C140.1,10.6,138.5,12.2,136.5,12.2L136.5,12.2L136.5,12.2 M136.5,2.7c-3.3,0-6,2.7-6,6l0,0l0,0c0,3.3,2.7,6,6,6l0,0
										c3.3,0,5.9-2.7,5.9-6l0,0l0,0C142.5,5.4,139.8,2.7,136.5,2.7L136.5,2.7L136.5,2.7"/>
								</g>
								<g id="g1041">
									<path id="path1043" class="st0" d="M140.5,13.7v-0.2h0.8v0.2h-0.3v0.8h-0.3v-0.8H140.5z"/>
								</g>
								<g id="g1045">
									<path id="path1047" class="st0" d="M141.7,13.5l0.3,0.7l0,0l0.2-0.7h0.3v1h-0.2v-0.7l0,0l-0.2,0.7h-0.2l-0.3-0.7l0,0v0.7
										h-0.2v-1H141.7z"/>
								</g>
							</g>
						</g>
					</g>
				</g>
			</g>
		</g>
	</g>
</g>
</svg>
